<?xml version="1.0" encoding="utf-8"?>
<!-- Svg Vector Icons : http://www.onlinewebfonts.com/icon -->
<!DOCTYPE svg PUBLIC "-//W3C//DTD SVG 1.1//EN" "http://www.w3.org/Graphics/SVG/1.1/DTD/svg11.dtd">
<svg version="1.1" xmlns="http://www.w3.org/2000/svg" xmlns:xlink="http://www.w3.org/1999/xlink" x="0px" y="0px" viewBox="0 0 256 256" enable-background="new 0 0 256 256" xml:space="preserve">
<metadata> Svg Vector Icons : http://www.onlinewebfonts.com/icon </metadata>
<g><g><g><path fill="#000000" d="M20.7,63.6l88.5,72.1c5.4,4.4,11.9,6.6,18.4,6.6c6.6,0,13.1-2.2,18.4-6.6L235.2,63c12.5-10.2,14.4-28.5,4.2-41c-10.2-12.5-28.5-14.4-41-4.2l-70.7,57.6L57.6,18.3C45.1,8.1,26.7,10,16.6,22.5C6.4,35,8.3,53.4,20.7,63.6z"/><path fill="#000000" d="M20.7,166.1l88.5,72.1c5.4,4.4,11.9,6.6,18.4,6.6c6.6,0,13.1-2.2,18.4-6.6l89.2-72.6c12.5-10.2,14.4-28.5,4.2-41c-10.2-12.5-28.5-14.4-41-4.2L127.7,178l-70.1-57.1c-12.5-10.2-30.9-8.3-41.1,4.2C6.4,137.6,8.3,156,20.7,166.1z"/></g><g></g><g></g><g></g><g></g><g></g><g></g><g></g><g></g><g></g><g></g><g></g><g></g><g></g><g></g><g></g></g></g>
</svg>